<svg width="164" height="221" viewBox="0 0 164 221" fill="none" xmlns="http://www.w3.org/2000/svg">
<path d="M155.846 5.02101C146.866 -3.95899 118.257 12.376 105.657 20.295C99.4209 19.258 91.3759 18.832 82.1639 18.874C72.9499 18.833 64.9049 19.259 58.6689 20.296C46.0649 12.37 17.4579 -3.95399 8.48292 5.02101C-0.430078 13.934 9.74692 38.404 14.9729 49.307C8.79192 59.747 6.53492 71.18 6.53492 81.025C6.53492 89.538 7.54892 98.041 9.58892 106.544C13.5709 123.139 26.6919 135.883 43.4169 139.271C46.2609 139.846 49.1059 140.354 51.9499 140.802C50.8499 143.219 50.2449 145.806 50.2449 148.501C50.2449 161.691 64.5349 172.384 82.1619 172.384C99.7889 172.384 114.079 161.691 114.079 148.501C114.079 145.806 113.474 143.219 112.374 140.803C115.22 140.354 118.066 139.846 120.911 139.271C137.636 135.883 150.757 123.14 154.738 106.544C156.777 98.041 157.792 89.538 157.792 81.025C157.792 71.182 155.536 59.752 149.359 49.315C154.574 38.423 164.762 13.938 155.846 5.02101Z" fill="#B2B8C4"/>
<path d="M91.309 24.951C91.309 39.043 87.209 50.459 82.17 50.459C77.12 50.459 73.02 39.043 73.02 24.951C73.02 23.02 73.096 21.142 73.246 19.34C79.191 19.07 85.137 19.07 91.082 19.35C91.234 21.152 91.309 23.03 91.309 24.951Z" fill="#95A1B3"/>
<path d="M71.6708 20.321C71.6708 34.402 67.5808 45.829 62.5308 45.829C57.6748 45.829 53.6828 35.201 53.4028 21.821C56.5428 21.001 59.7908 20.418 63.1138 20.084C65.9628 19.803 68.8108 19.577 71.6598 19.426C71.6708 19.728 71.6708 20.019 71.6708 20.321Z" fill="#95A1B3"/>
<path d="M110.926 21.703C110.667 35.137 106.675 45.83 101.797 45.83C96.7467 45.83 92.6577 34.403 92.6577 20.322C92.6577 20.02 92.6577 19.729 92.6687 19.426C95.9387 19.599 99.2187 19.868 102.488 20.214C105.369 20.516 108.185 21.023 110.926 21.703Z" fill="#95A1B3"/>
<path d="M145.325 26.699C145.325 26.699 146.782 30.001 147.019 33.702C147.246 37.122 145.185 39.733 142.487 40.823C136.822 34.381 129.83 29.116 121.931 25.458C122.006 23.602 122.783 21.779 124.294 20.408C130.358 14.894 138.742 8.94902 144.677 11.366C155.015 15.585 145.325 26.699 145.325 26.699Z" fill="white"/>
<path d="M18.9959 26.699C18.9959 26.699 17.5389 30.001 17.3019 33.702C17.0749 37.122 19.1359 39.733 21.8339 40.823C27.4989 34.381 34.4909 29.116 42.3899 25.458C42.3139 23.602 41.5369 21.779 40.0269 20.408C33.9629 14.894 25.5789 8.94902 19.6439 11.366C9.3059 15.585 18.9959 26.699 18.9959 26.699Z" fill="white"/>
<path d="M157.521 3.33901C152.827 -1.35499 144.225 -1.10199 131.224 4.11301C121.755 7.91101 111.952 13.567 105.147 17.815C99.1699 16.902 91.4849 16.461 82.1739 16.499C72.8449 16.461 65.1539 16.903 59.1739 17.816C52.3589 13.565 42.5449 7.90601 33.0909 4.11301C20.0929 -1.10199 11.4919 -1.35499 6.79888 3.33901C-2.62912 12.766 5.90788 35.619 12.2859 49.187C5.41888 61.353 4.15988 73.669 4.15988 81.025C4.15988 89.697 5.20988 98.469 7.27888 107.098C9.33988 115.688 13.7639 123.457 20.0709 129.566C26.3909 135.686 34.2999 139.847 42.9449 141.599C55.9559 144.229 69.1509 145.563 82.1629 145.563C95.1759 145.563 108.371 144.229 121.382 141.599C130.026 139.848 137.936 135.687 144.255 129.566C150.563 123.457 154.986 115.687 157.047 107.098C159.116 98.469 160.166 89.697 160.166 81.025C160.166 73.669 158.907 61.354 152.041 49.188C158.41 35.616 166.935 12.753 157.521 3.33901ZM152.43 105.991C148.681 121.617 136.125 133.767 120.442 136.944C107.741 139.512 94.8629 140.814 82.1649 140.814C69.4679 140.814 56.5889 139.512 43.8889 136.945C28.2049 133.768 15.6489 121.618 11.8999 105.992C9.91688 97.726 8.91188 89.326 8.91188 81.027C8.91188 71.831 11.0139 54.279 25.0949 40.055C26.0179 39.123 26.0099 37.619 25.0779 36.696C24.1459 35.773 22.6429 35.78 21.7189 36.713C19.2589 39.197 17.1409 41.774 15.3109 44.389C6.97088 25.781 5.02188 11.837 10.1599 6.69901C15.1179 1.74201 31.0909 6.55501 52.4139 19.257C48.5519 20.372 44.8519 21.719 41.4129 23.266C40.2169 23.804 39.6829 25.21 40.2209 26.406C40.6169 27.286 41.4819 27.807 42.3879 27.807C42.7139 27.807 43.0449 27.74 43.3609 27.598C46.6909 26.1 50.2869 24.798 54.0479 23.727C60.0399 22.026 69.4869 21.186 82.1769 21.249C94.8389 21.191 104.293 22.026 110.283 23.726C114.047 24.797 117.643 26.1 120.971 27.597C122.168 28.135 123.573 27.602 124.111 26.405C124.649 25.209 124.116 23.803 122.92 23.265C119.48 21.717 115.777 20.37 111.91 19.253C133.225 6.545 149.199 1.73201 154.164 6.69701C159.293 11.826 157.347 25.77 149.02 44.387C147.189 41.772 145.071 39.196 142.612 36.712C141.69 35.779 140.186 35.772 139.253 36.695C138.321 37.618 138.313 39.122 139.236 40.054C153.317 54.278 155.419 71.829 155.419 81.026C155.418 89.325 154.413 97.724 152.43 105.991Z" fill="#70838E"/>
<path d="M135.684 102.418H122.279C120.967 102.418 119.904 101.355 119.904 100.043C119.904 98.731 120.967 97.668 122.279 97.668H135.684C136.995 97.668 138.059 98.731 138.059 100.043C138.059 101.354 136.995 102.418 135.684 102.418Z" fill="#95A1B3"/>
<path d="M133.246 115.011C132.972 115.011 132.693 114.963 132.422 114.863L121.455 110.801C120.225 110.345 119.597 108.979 120.053 107.749C120.509 106.519 121.874 105.89 123.105 106.347L134.072 110.409C135.302 110.865 135.93 112.231 135.474 113.461C135.119 114.419 134.211 115.011 133.246 115.011Z" fill="#95A1B3"/>
<path d="M42.05 102.418H28.645C27.334 102.418 26.27 101.355 26.27 100.043C26.27 98.731 27.334 97.668 28.645 97.668H42.05C43.362 97.668 44.425 98.731 44.425 100.043C44.425 101.354 43.362 102.418 42.05 102.418Z" fill="#95A1B3"/>
<path d="M31.0832 115.011C30.1182 115.011 29.2102 114.418 28.8552 113.46C28.3992 112.23 29.0272 110.864 30.2572 110.408L41.2252 106.346C42.4572 105.891 43.8222 106.519 44.2772 107.748C44.7332 108.978 44.1052 110.344 42.8752 110.8L31.9072 114.862C31.6352 114.963 31.3562 115.011 31.0832 115.011Z" fill="#95A1B3"/>
<path d="M108.827 71.175C108.596 71.175 108.361 71.141 108.13 71.07L101.097 68.912C99.8427 68.527 99.1377 67.199 99.5227 65.945C99.9077 64.691 101.236 63.986 102.49 64.371L109.522 66.529C110.776 66.914 111.481 68.242 111.096 69.496C110.783 70.519 109.843 71.175 108.827 71.175Z" fill="white"/>
<path d="M55.5016 71.175C54.4856 71.175 53.5456 70.518 53.2316 69.496C52.8466 68.242 53.5516 66.913 54.8056 66.529L61.8376 64.371C63.0916 63.986 64.4206 64.691 64.8046 65.945C65.1896 67.199 64.4846 68.528 63.2306 68.912L56.1996 71.07C55.9676 71.142 55.7326 71.175 55.5016 71.175Z" fill="white"/>
<path d="M115.451 91.968C111.444 91.968 107.678 90.408 104.844 87.575C103.917 86.647 103.917 85.143 104.844 84.216C105.771 83.288 107.276 83.289 108.203 84.216C110.139 86.152 112.712 87.218 115.45 87.218C118.188 87.218 120.761 86.152 122.698 84.216C123.625 83.289 125.13 83.289 126.056 84.216C126.984 85.143 126.984 86.647 126.056 87.575C123.225 90.408 119.458 91.968 115.451 91.968Z" fill="#5F5C5D"/>
<path d="M48.8777 91.961C45.0367 91.961 41.1957 90.499 38.2717 87.575C37.3437 86.648 37.3437 85.144 38.2717 84.216C39.1997 83.289 40.7027 83.288 41.6307 84.216C45.6277 88.212 52.1297 88.212 56.1267 84.216C57.0537 83.289 58.5587 83.289 59.4857 84.216C60.4137 85.143 60.4137 86.647 59.4857 87.575C56.5597 90.499 52.7187 91.961 48.8777 91.961Z" fill="#5F5C5D"/>
<path d="M140.47 156.638H23.8589C21.9719 156.638 20.2819 157.808 19.6189 159.575L3.2099 203.288C3.0189 203.797 2.9209 204.336 2.9209 204.88V213.786C2.9209 216.287 4.9489 218.315 7.4499 218.315H156.879C159.38 218.315 161.408 216.287 161.408 213.786V204.88C161.408 204.336 161.31 203.797 161.119 203.288L144.71 159.576C144.047 157.809 142.357 156.638 140.47 156.638Z" fill="#C9ADB5"/>
<path d="M156.879 220.69H7.4499C3.6429 220.69 0.545898 217.593 0.545898 213.786V204.88C0.545898 204.048 0.693897 203.232 0.985897 202.454L17.3949 158.742C18.3999 156.064 20.9979 154.264 23.8589 154.264H140.47C143.331 154.264 145.929 156.063 146.934 158.742L163.342 202.454C163.634 203.232 163.782 204.049 163.782 204.88V213.786C163.783 217.593 160.686 220.69 156.879 220.69ZM23.8589 159.013C22.9659 159.013 22.1559 159.574 21.8419 160.41L5.4329 204.122C5.3419 204.365 5.2959 204.62 5.2959 204.879V213.785C5.2959 214.973 6.2619 215.939 7.4499 215.939H156.879C158.067 215.939 159.033 214.973 159.033 213.785V204.879C159.033 204.62 158.987 204.365 158.896 204.122L142.488 160.41C142.175 159.574 141.364 159.013 140.471 159.013H23.8589Z" fill="#AB8D96"/>
<path d="M146.074 206.433H18.2549C16.9429 206.433 15.8799 205.37 15.8799 204.058C15.8799 202.746 16.9429 201.683 18.2549 201.683H146.074C147.386 201.683 148.449 202.746 148.449 204.058C148.449 205.369 147.386 206.433 146.074 206.433Z" fill="#AB8D96"/>
<path d="M116.174 174.466C140.624 168.641 116.55 134.18 116.55 134.18C116.55 134.18 129.603 133.647 127.226 123.775C124.337 111.772 96.7109 115.454 96.7109 142.289C96.7109 169.124 103.432 177.502 116.174 174.466Z" fill="#B2B8C4"/>
<path d="M48.1548 174.466C23.7048 168.641 47.7788 134.18 47.7788 134.18C47.7788 134.18 34.7258 133.647 37.1028 123.775C39.9918 111.772 67.6178 115.454 67.6178 142.289C67.6178 169.124 60.8968 177.502 48.1548 174.466Z" fill="#B2B8C4"/>
<path d="M111.606 177.423C108.26 177.423 105.38 176.483 103.006 174.608C97.0909 169.937 94.3359 159.667 94.3359 142.289C94.3359 134.389 96.6369 127.58 100.989 122.6C104.659 118.4 109.769 115.635 115.008 115.013C122.309 114.146 128.146 117.444 129.536 123.218C130.5 127.226 129.296 129.93 128.116 131.493C126.586 133.519 124.162 134.986 120.911 135.855C120.78 135.89 120.65 135.923 120.521 135.955C124.45 142.397 132.339 157.285 128.45 167.506C126.652 172.231 122.707 175.349 116.725 176.775C114.914 177.208 113.207 177.423 111.606 177.423ZM117.181 119.634C116.641 119.634 116.101 119.667 115.568 119.73C111.482 120.215 107.472 122.4 104.566 125.725C100.981 129.827 99.0869 135.555 99.0869 142.288C99.0869 157.663 101.396 167.282 105.951 170.879C108.294 172.73 111.458 173.147 115.624 172.155C120.045 171.102 122.789 169.029 124.01 165.818C125.656 161.492 124.597 154.943 120.947 146.879C118.078 140.539 114.638 135.59 114.604 135.541C114.107 134.83 114.038 133.904 114.423 133.126C114.808 132.349 115.587 131.843 116.454 131.808C118.03 131.736 122.528 131.024 124.332 128.624C125.158 127.526 125.349 126.122 124.918 124.331C124.118 121.008 120.679 119.634 117.181 119.634Z" fill="#70838E"/>
<path d="M52.7227 177.423C51.1217 177.423 49.4147 177.208 47.6047 176.777C41.6227 175.352 37.6777 172.233 35.8797 167.508C31.9907 157.287 39.8787 142.399 43.8087 135.957C43.6797 135.925 43.5507 135.892 43.4187 135.857C40.1677 134.988 37.7437 133.52 36.2137 131.495C35.0337 129.932 33.8287 127.228 34.7937 123.22C36.1837 117.446 42.0217 114.147 49.3217 115.015C54.5607 115.637 59.6707 118.402 63.3407 122.602C67.6937 127.582 69.9937 134.391 69.9937 142.291C69.9937 159.669 67.2387 169.939 61.3237 174.61C58.9487 176.482 56.0687 177.423 52.7227 177.423ZM47.1477 119.634C43.6487 119.634 40.2107 121.008 39.4117 124.33C38.9807 126.12 39.1727 127.525 39.9977 128.623C41.8017 131.023 46.2997 131.736 47.8807 131.807C48.7457 131.846 49.5227 132.353 49.9057 133.13C50.2887 133.907 50.2217 134.83 49.7257 135.54C49.6917 135.589 46.2167 140.596 43.3517 146.946C39.7257 154.981 38.6777 161.508 40.3207 165.821C41.5437 169.03 44.2857 171.102 48.7057 172.155C52.8727 173.147 56.0357 172.73 58.3787 170.879C62.9327 167.282 65.2427 157.663 65.2427 142.288C65.2427 135.554 63.3477 129.827 59.7637 125.725C56.8577 122.4 52.8477 120.215 48.7617 119.73C48.2287 119.667 47.6877 119.634 47.1477 119.634Z" fill="#70838E"/>
<path d="M101.878 107.14C101.878 109.525 101.155 111.24 99.8707 112.492C96.6657 115.6 89.9327 115.751 82.1637 115.751C74.3947 115.751 67.6617 115.6 64.4567 112.481C63.1727 111.24 62.4497 109.525 62.4497 107.14C62.4497 101.896 65.9567 97.267 71.2867 94.559C74.4047 92.973 78.1387 92.056 82.1637 92.056C92.3607 92.056 100.734 97.969 101.759 105.576C101.835 106.083 101.878 106.611 101.878 107.14Z" fill="#70838E"/>
<path d="M99.8705 112.492C96.6655 115.6 89.9325 115.751 82.1635 115.751C74.3945 115.751 67.6615 115.6 64.4565 112.481C65.9995 110.064 68.3735 108.003 71.2865 106.525C74.4045 104.939 78.1385 104.022 82.1635 104.022C89.9545 104.021 96.6765 107.474 99.8705 112.492Z" fill="#E27FA3"/>
<path d="M84.5367 89.788L84.5377 86.179H85.9287C87.2407 86.179 88.3037 85.116 88.3037 83.804C88.3037 82.492 87.2397 81.429 85.9287 81.429H78.3987C77.0867 81.429 76.0237 82.492 76.0237 83.804C76.0237 85.116 77.0867 86.179 78.3987 86.179H79.7877L79.7867 89.789C68.7217 90.729 60.0767 98.149 60.0767 107.136C60.0767 112.03 62.5807 115.292 67.5177 116.831C71.3537 118.027 76.2117 118.122 82.1627 118.122C88.1137 118.122 92.9717 118.027 96.8077 116.831C101.746 115.292 104.25 112.03 104.25 107.136C104.251 98.147 95.6037 90.727 84.5367 89.788ZM82.1637 113.371C69.3697 113.371 64.8267 112.429 64.8267 107.135C64.8267 100.132 72.6037 94.435 82.1637 94.435C91.7237 94.435 99.5007 100.132 99.5007 107.135C99.5007 112.429 94.9587 113.371 82.1637 113.371Z" fill="#70838E"/>
</svg>
